# xmcd
# Track frame offsets:
# 150
# 12744
# 25489
# 38083
# 48877
# 59896
# 70241
# 83511
# 94755
# 106824
# 118819
# 128864
# 139434
# 151954
# 163874
# 176694
# 189365
# 201134
# 212004
# 221973
#
# Disc length: 3125 seconds
# Revision: 0
# Processed by: cddbd v1.5.2PL0 Copyright (c) Steve Scherf et al.
# Submitted via: VisiTrax 2.11.2.271 - For more info visit www.synapsa.com
#
DISCID=2c0c3314
DTITLE=Hank Snow - The Essential Hank Snow
DYEAR=1997
DGENRE=Country
TTITLE0=Rhumba Boogie
TTITLE1=I'm Movin' On
TTITLE2=The Golden Rocket
TTITLE3=Unwanted Sign Upon Your Heart
TTITLE4=Music Makin' Mama From Memphis
TTITLE5=The Gold Rush Is Over
TTITLE6=I Dont' Hurt Anymore
TTITLE7=(Now And Then, There's) A Fool Such As I
TTITLE8=The Gal Who Invented Kissin'
TTITLE9=I Went To Your Wedding [Alternate Take]
TTITLE10=Would You Mind
TTITLE11=Lady's Man
TTITLE12=Yellow Roses
TTITLE13=Miller's Cave
TTITLE14=Beggar To A King
TTITLE15=I've Been Everywhere
TTITLE16=Ninety Miles An Hour (Down A Dead End Street)
TTITLE17=Let Me Go, Lover
TTITLE18=The Wishing Well (Down In The Well)
TTITLE19=Hello Love
EXTD=
EXTT0=
EXTT1=
EXTT2=
EXTT3=
EXTT4=
EXTT5=
EXTT6=
EXTT7=
EXTT8=
EXTT9=
EXTT10=
EXTT11=
EXTT12=
EXTT13=
EXTT14=
EXTT15=
EXTT16=
EXTT17=
EXTT18=
EXTT19=
PLAYORDER=
